<?xml version="1.0" standalone="no"?>
<!DOCTYPE svg PUBLIC "-//W3C//DTD SVG 20010904//EN"
 "http://www.w3.org/TR/2001/REC-SVG-20010904/DTD/svg10.dtd">
<svg version="1.0" xmlns="http://www.w3.org/2000/svg"
 width="300.000000pt" height="196.000000pt" viewBox="0 0 300.000000 196.000000"
 preserveAspectRatio="xMidYMid meet">
<metadata>
Created by potrace 1.10, written by Peter Selinger 2001-2011
</metadata>
<g transform="translate(0.000000,196.000000) scale(0.100000,-0.100000)"
fill="#000000" stroke="none">
<path d="M807 1236 c-50 -14 -99 -53 -123 -98 -17 -33 -18 -128 -2 -164 11
-24 10 -28 -15 -46 -15 -11 -27 -25 -27 -33 0 -19 28 -38 46 -31 15 6 16 8 0
24 -15 17 -14 20 9 42 14 13 26 22 27 19 26 -41 30 -53 20 -57 -13 -4 103
-162 118 -162 13 0 121 146 156 209 21 40 35 53 75 69 54 23 66 46 56 109 -12
69 -94 122 -147 93 -17 -9 -25 -9 -38 3 -14 13 -86 38 -102 36 -3 0 -27 -6
-53 -13z m103 -38 c0 -5 8 -8 18 -8 11 0 18 -8 19 -21 1 -15 -1 -18 -10 -11
-19 16 -67 -10 -122 -66 -28 -29 -54 -52 -59 -52 -5 0 -14 -7 -21 -17 -7 -9
-16 -13 -22 -10 -16 10 -14 84 2 101 9 8 15 18 15 21 -3 19 39 54 70 60 13 2
25 7 28 10 8 8 82 1 82 -7z m159 -33 c57 -49 63 -135 8 -135 -61 1 -124 109
-85 148 19 19 44 14 77 -13z m-138 -67 c6 -23 26 -57 45 -76 19 -19 31 -38 27
-42 -4 -4 -36 -15 -70 -25 -52 -15 -65 -16 -78 -5 -19 15 -45 63 -45 81 0 9
98 109 107 109 1 0 7 -19 14 -42z m-100 -149 c29 -21 25 -26 -28 -35 -37 -6
-43 -4 -59 20 -17 27 -17 27 17 62 l34 35 7 -32 c3 -18 17 -40 29 -50z m115
-57 c-8 -15 -26 -40 -40 -57 -14 -16 -26 -33 -26 -37 0 -5 -6 -8 -14 -8 -17 0
-68 59 -63 73 6 18 71 48 95 44 12 -2 22 -1 22 2 0 4 9 7 20 8 18 2 19 0 6
-25z"/>
<path d="M1000 1120 c0 -5 23 -21 50 -35 28 -14 50 -21 50 -15 0 5 -22 21 -50
35 -27 14 -50 21 -50 15z"/>
<path d="M1204 1127 c-2 -7 -3 -67 -2 -132 2 -84 7 -120 16 -123 9 -3 12 13
12 57 l0 61 60 0 c47 0 60 3 60 15 0 12 -13 15 -60 15 l-60 0 0 45 0 45 80 0
c64 0 80 3 80 15 0 20 -178 22 -186 2z"/>
<path d="M1742 1008 l3 -133 89 0 c63 0 91 4 94 13 3 9 -17 12 -77 12 l-81 0
0 45 0 45 60 0 c47 0 60 3 60 15 0 12 -13 15 -60 15 l-60 0 0 45 0 45 80 0
c64 0 80 3 80 15 0 12 -17 15 -95 15 l-96 0 3 -132z"/>
<path d="M1597 1064 c-4 -4 -7 -50 -7 -101 0 -71 3 -94 13 -91 7 3 13 28 15
64 4 73 21 94 74 94 27 0 38 4 36 13 -6 15 -62 21 -85 9 -12 -7 -20 -6 -28 4
-6 9 -14 12 -18 8z"/>
<path d="M1922 1061 c-10 -6 -4 -26 24 -89 l37 -82 -18 -40 c-13 -29 -15 -44
-8 -51 13 -13 15 -10 78 139 35 83 45 116 37 124 -11 11 -37 -37 -67 -117 -6
-17 -10 -13 -26 25 -39 92 -44 100 -57 91z"/>
<path d="M1413 1036 c-22 -19 -28 -32 -28 -64 0 -72 76 -123 129 -88 21 13 25
13 30 1 13 -34 26 -11 26 46 0 91 -26 128 -92 129 -25 0 -46 -8 -65 -24z m109
-23 c37 -33 17 -96 -34 -108 -21 -5 -33 -1 -52 19 -31 30 -33 59 -6 86 24 24
67 26 92 3z"/>
<path d="M2125 1035 c-36 -35 -35 -102 1 -136 31 -29 95 -33 121 -7 24 25 10
32 -30 17 -30 -11 -39 -10 -61 5 -46 30 -33 41 45 38 39 -2 76 1 81 6 13 13
-15 78 -40 91 -37 20 -91 13 -117 -14z m107 -22 c29 -26 21 -33 -42 -33 -62 0
-71 7 -44 34 20 21 63 20 86 -1z"/>
<path d="M647 664 c-11 -11 -8 -74 3 -74 6 0 10 7 10 15 0 8 7 15 16 15 10 0
14 7 12 22 -3 23 -27 35 -41 22z"/>
<path d="M711 628 c0 -33 2 -38 9 -23 7 18 8 19 15 3 11 -28 23 -21 20 10 -2
36 -12 52 -31 52 -10 0 -14 -12 -13 -42z"/>
<path d="M777 663 c-4 -3 -7 -21 -7 -40 0 -26 4 -33 20 -33 11 0 20 5 20 10 0
6 -6 10 -12 10 -9 0 -8 4 2 10 13 9 13 11 0 20 -10 6 -11 10 -2 10 6 0 12 5
12 10 0 11 -23 14 -33 3z"/>
<path d="M830 630 c0 -37 2 -41 21 -38 30 4 47 33 33 56 -6 9 -21 18 -33 20
-19 3 -21 -1 -21 -38z m40 0 c0 -11 -7 -20 -15 -20 -15 0 -21 21 -8 33 12 13
23 7 23 -13z"/>
<path d="M900 630 c0 -22 5 -40 10 -40 6 0 10 18 10 40 0 22 -4 40 -10 40 -5
0 -10 -18 -10 -40z"/>
<path d="M939 654 c-19 -23 -2 -64 26 -64 14 0 25 5 25 10 0 6 -9 10 -20 10
-13 0 -20 7 -20 20 0 16 7 20 30 20 27 0 30 -3 30 -30 0 -16 5 -30 10 -30 6 0
10 11 10 24 0 13 3 31 6 40 5 12 -2 15 -40 14 -25 0 -51 -7 -57 -14z"/>
<path d="M1057 663 c-11 -10 -8 -73 3 -73 6 0 10 18 10 40 0 41 -2 45 -13 33z"/>
<path d="M1080 661 c0 -18 22 -71 30 -71 12 0 16 9 25 50 5 24 4 32 -3 25 -6
-5 -12 -19 -14 -30 -4 -18 -6 -17 -16 8 -11 26 -22 36 -22 18z"/>
<path d="M1157 663 c-4 -3 -7 -21 -7 -40 0 -29 3 -33 28 -33 25 1 26 2 9 14
-14 11 -15 15 -5 19 10 4 10 8 -2 16 -13 9 -12 11 3 11 10 0 15 5 12 10 -7 11
-28 13 -38 3z"/>
<path d="M1230 630 c0 -36 3 -40 25 -40 14 0 25 5 25 10 0 6 -7 10 -15 10 -10
0 -15 10 -15 30 0 17 -4 30 -10 30 -5 0 -10 -18 -10 -40z"/>
<path d="M1294 656 c-3 -8 -4 -25 -2 -38 2 -17 9 -23 28 -23 22 0 25 4 25 35
0 29 -4 36 -23 38 -13 2 -24 -3 -28 -12z m44 -29 c2 -10 -3 -17 -12 -17 -18 0
-29 16 -21 31 9 14 29 6 33 -14z"/>
<path d="M1382 661 c-8 -5 -12 -21 -10 -37 2 -21 9 -30 26 -32 17 -3 22 2 22
17 0 12 -5 21 -11 21 -5 0 -7 -4 -4 -10 3 -5 -1 -10 -9 -10 -23 0 -19 31 4 37
11 3 20 9 20 14 0 11 -21 11 -38 0z"/>
<path d="M1440 631 c0 -23 5 -41 10 -41 6 0 10 15 10 34 0 19 -4 38 -10 41 -6
4 -10 -10 -10 -34z"/>
<path d="M1473 654 c-4 -11 1 -22 12 -30 17 -13 17 -14 2 -14 -9 0 -17 -4 -17
-10 0 -13 37 -13 45 1 4 5 -1 19 -11 30 -10 11 -12 19 -6 19 7 0 12 5 12 10 0
17 -30 11 -37 -6z"/>
<path d="M1520 660 c0 -5 5 -10 10 -10 6 0 10 -13 10 -30 0 -16 5 -30 10 -30
6 0 10 14 10 30 0 17 5 30 10 30 6 0 10 -13 10 -30 0 -16 5 -30 10 -30 6 0 10
17 10 38 0 36 -1 37 -40 40 -22 1 -40 -2 -40 -8z"/>
<path d="M1621 648 c-5 -13 -5 -31 1 -40 9 -19 48 -25 48 -8 0 6 -9 10 -20 10
-26 0 -26 30 0 37 22 6 17 23 -6 23 -8 0 -18 -10 -23 -22z"/>
<path d="M1683 654 c-4 -11 1 -22 12 -30 17 -13 17 -14 2 -14 -9 0 -17 -4 -17
-10 0 -13 37 -13 45 1 4 5 -1 19 -11 30 -10 11 -12 19 -6 19 7 0 12 5 12 10 0
17 -30 11 -37 -6z"/>
<path d="M1760 631 c0 -23 5 -41 10 -41 6 0 10 7 10 15 0 8 7 15 16 15 25 0
13 44 -13 48 -21 3 -23 -1 -23 -37z"/>
<path d="M1820 630 c0 -39 1 -40 35 -40 19 0 35 5 35 10 0 14 28 12 33 -2 2
-7 7 -10 11 -7 4 4 0 24 -9 45 -16 37 -17 38 -31 20 -8 -11 -14 -26 -14 -33 0
-7 -9 -13 -20 -13 -16 0 -20 7 -20 30 0 17 -4 30 -10 30 -5 0 -10 -18 -10 -40z"/>
<path d="M1940 660 c0 -5 5 -10 10 -10 6 0 10 -13 10 -30 0 -16 5 -30 10 -30
6 0 10 14 10 30 0 17 5 30 11 30 5 0 7 5 4 10 -3 6 -17 10 -31 10 -13 0 -24
-4 -24 -10z"/>
<path d="M2010 653 c0 -10 -3 -28 -6 -40 -4 -14 -2 -23 5 -23 6 0 11 6 11 14
0 8 8 17 18 19 16 4 16 5 0 6 -22 1 -24 21 -3 21 8 0 15 5 15 10 0 6 -9 10
-20 10 -12 0 -20 -7 -20 -17z"/>
<path d="M2072 661 c-22 -14 -11 -65 15 -69 27 -4 44 25 32 56 -9 23 -25 28
-47 13z m36 -34 c2 -10 -3 -17 -12 -17 -18 0 -29 16 -21 31 9 14 29 6 33 -14z"/>
<path d="M2140 630 c0 -22 5 -40 10 -40 6 0 10 8 10 18 1 16 1 16 11 0 17 -29
46 -22 53 13 3 17 3 35 0 40 -10 17 -24 -2 -24 -32 0 -18 -4 -28 -10 -24 -6 4
-8 16 -4 27 4 13 1 24 -7 29 -28 18 -39 9 -39 -31z"/>
<path d="M2254 645 c-3 -14 -10 -22 -15 -19 -5 3 -9 -4 -9 -15 0 -28 17 -27
26 2 l8 22 7 -25 c6 -20 7 -17 8 18 1 46 -15 57 -25 17z"/>
</g>
</svg>
