<?xml version="1.0" standalone="no"?>
<!DOCTYPE svg PUBLIC "-//W3C//DTD SVG 20010904//EN"
 "http://www.w3.org/TR/2001/REC-SVG-20010904/DTD/svg10.dtd">
<svg version="1.0" xmlns="http://www.w3.org/2000/svg"
 width="300.000000pt" height="112.000000pt" viewBox="0 0 300.000000 112.000000"
 preserveAspectRatio="xMidYMid meet">
<metadata>
Created by potrace 1.10, written by Peter Selinger 2001-2011
</metadata>
<g transform="translate(0.000000,112.000000) scale(0.100000,-0.100000)"
fill="#000000" stroke="none">
<path d="M155 1034 c-15 -15 -16 -49 -13 -313 3 -293 3 -297 28 -345 30 -60
74 -86 143 -86 58 0 115 27 141 68 l20 30 40 -34 c78 -67 223 -83 328 -36 92
40 168 148 191 271 12 61 20 74 30 47 3 -8 40 -37 81 -65 83 -56 96 -73 96
-124 0 -64 -67 -92 -150 -63 -63 22 -89 20 -99 -6 -5 -13 -7 -28 -4 -34 8 -21
79 -47 146 -52 115 -8 184 31 207 119 27 101 -39 182 -251 307 -32 19 -59 57
-59 82 0 18 93 50 144 50 57 0 96 -8 96 -20 0 -4 -19 -4 -42 2 -53 11 -80 5
-113 -28 -29 -29 -32 -52 -9 -80 15 -18 15 -18 9 4 -4 14 0 33 10 49 16 24 21
25 73 19 111 -12 114 -12 126 6 8 13 8 23 0 35 -19 31 -61 44 -140 44 -69 0
-82 -3 -118 -28 -55 -39 -72 -73 -105 -205 -44 -179 -82 -232 -188 -264 -111
-34 -219 18 -253 122 -16 48 -8 150 15 197 41 86 169 123 270 78 51 -23 79
-21 89 6 17 44 -33 77 -143 93 -118 17 -233 -28 -288 -111 -14 -21 -26 -43
-27 -51 -1 -7 -8 -31 -15 -52 -9 -26 -12 -66 -8 -117 4 -63 2 -82 -13 -106
-23 -38 -73 -59 -108 -47 -45 16 -52 44 -52 232 l0 172 74 0 c98 0 134 31 87
74 -15 14 -34 17 -88 15 l-68 -3 -3 70 c-2 50 -7 72 -19 82 -23 17 -48 15 -68
-4z m55 -65 c0 -22 5 -50 11 -62 9 -16 9 -22 0 -25 -7 -2 -23 -16 -37 -31
l-25 -26 6 70 c9 97 13 115 30 115 11 0 15 -11 15 -41z m55 -124 l30 -13 -27
-1 c-53 -2 -60 -29 -56 -229 3 -192 6 -204 58 -224 23 -10 52 -11 91 -5 8 1
30 14 48 29 l34 26 -2 97 c-1 105 13 180 31 169 8 -5 9 -2 5 9 -4 12 -1 17 9
17 13 0 14 -5 9 -22 -5 -13 -10 -57 -12 -99 -4 -67 -1 -83 20 -125 44 -86 96
-121 191 -130 55 -5 139 18 172 47 11 11 26 19 34 19 7 0 -2 -13 -20 -30 -31
-27 -49 -35 -74 -31 -4 1 -15 -4 -23 -11 -18 -15 -156 -15 -161 0 -2 6 -10 8
-18 5 -8 -3 -34 8 -57 25 -61 43 -85 43 -131 -1 -21 -20 -42 -37 -45 -38 -3 0
-15 -3 -26 -6 -61 -15 -120 13 -150 72 -17 35 -20 63 -22 220 -3 164 -1 183
17 213 22 35 31 38 75 17z m463 -5 c-9 -6 -50 -16 -91 -24 -88 -17 -123 -33
-168 -78 -22 -22 -29 -26 -21 -11 18 34 91 91 136 107 47 17 172 22 144 6z
m91 -12 c38 -14 20 -18 -27 -5 -23 6 -42 15 -42 20 0 8 19 4 69 -15z m248
-118 c6 0 21 -12 32 -26 12 -15 21 -24 21 -20 0 9 119 -86 154 -123 23 -24 30
-42 34 -86 4 -52 3 -56 -31 -90 -27 -27 -43 -35 -74 -36 -21 0 -46 -2 -55 -4
-10 -2 -20 0 -23 5 -2 4 13 10 35 13 53 7 94 38 107 81 6 20 7 36 3 36 -4 0
-6 8 -3 19 3 11 -7 31 -25 52 -34 39 -162 129 -189 133 -9 2 -27 -9 -40 -23
l-24 -26 7 35 c3 19 10 39 15 45 5 5 9 23 9 40 l1 30 17 -27 c9 -16 22 -28 29
-28z m-102 -212 c-7 -32 -45 -84 -45 -61 0 6 6 16 14 22 8 7 18 26 21 42 4 16
9 29 12 29 2 0 2 -15 -2 -32z"/>
<path d="M1497 883 c-4 -3 -7 -15 -7 -25 0 -13 7 -18 25 -18 23 0 25 -3 25
-50 0 -49 1 -50 30 -50 29 0 30 1 30 50 0 43 3 50 20 50 15 0 20 7 20 25 0 24
-2 25 -68 25 -38 0 -72 -3 -75 -7z"/>
<path d="M1657 817 c-15 -41 -27 -76 -27 -79 0 -2 13 -3 30 0 25 4 31 11 43
51 l14 46 12 -47 c11 -39 17 -47 42 -50 16 -3 29 -2 29 1 0 3 -12 39 -26 79
-25 69 -28 72 -58 72 -30 0 -33 -4 -59 -73z"/>
<path d="M1790 865 c0 -19 5 -25 23 -25 20 0 22 -4 19 -50 -4 -50 -4 -50 27
-50 31 0 31 1 31 50 0 47 2 50 25 50 20 0 25 5 25 25 0 24 -2 25 -75 25 -73 0
-75 -1 -75 -25z"/>
<path d="M1973 873 c-3 -10 -16 -44 -29 -76 l-23 -58 32 3 c28 3 33 8 41 41
12 47 22 47 33 0 7 -31 14 -38 41 -44 37 -8 37 -10 -3 88 -20 51 -27 58 -54
61 -23 2 -33 -2 -38 -15z"/>
<path d="M1550 663 c-35 -13 -50 -37 -50 -79 0 -33 5 -46 22 -58 30 -21 88
-21 88 0 0 11 -6 13 -20 9 -33 -10 -60 12 -60 48 0 40 15 57 52 57 30 0 38 14
12 24 -18 7 -23 7 -44 -1z"/>
<path d="M1663 660 c-69 -28 -47 -150 28 -150 67 0 97 97 43 139 -29 23 -38
24 -71 11z m55 -32 c17 -17 15 -73 -3 -88 -20 -17 -54 -3 -61 26 -13 52 31 95
64 62z"/>
<path d="M1952 654 c-33 -23 -28 -52 13 -71 46 -22 43 -49 -4 -45 -23 2 -31
-2 -29 -10 10 -29 83 -20 93 11 8 28 -3 48 -36 61 -39 16 -38 40 1 40 32 0 40
14 14 24 -22 9 -27 8 -52 -10z"/>
<path d="M2625 660 c-4 -6 -4 -34 0 -63 l6 -52 -33 58 c-20 35 -39 57 -50 57
-16 0 -18 -10 -18 -75 0 -63 3 -75 16 -75 14 0 16 8 10 55 -3 30 -4 55 -2 55
3 0 19 -25 36 -55 45 -78 60 -73 60 19 0 70 -10 100 -25 76z"/>
<path d="M2723 660 c-55 -22 -67 -102 -20 -135 30 -21 87 -20 87 1 0 12 -6 15
-25 10 -17 -4 -31 0 -45 14 -38 38 -15 90 41 90 31 0 39 14 13 24 -19 7 -23 7
-51 -4z"/>
<path d="M2898 658 c-10 -7 -21 -24 -26 -38 l-9 -25 -17 33 c-9 17 -23 32 -32
32 -12 0 -10 -10 12 -49 18 -35 25 -57 20 -75 -5 -22 -3 -26 15 -26 18 0 20 4
14 29 -5 22 0 40 20 71 29 45 30 68 3 48z"/>
<path d="M1785 585 c0 -53 4 -75 13 -75 8 0 12 18 12 58 l1 57 32 -57 c20 -36
39 -58 50 -58 15 0 17 10 17 75 0 60 -3 75 -15 75 -11 0 -15 -13 -15 -52 l0
-53 -30 53 c-18 31 -37 52 -48 52 -15 0 -17 -11 -17 -75z"/>
<path d="M2050 607 c0 -65 20 -97 60 -97 40 0 60 32 60 97 0 40 -4 53 -15 53
-11 0 -15 -13 -15 -54 0 -35 -5 -58 -15 -66 -26 -22 -45 5 -45 66 0 41 -4 54
-15 54 -11 0 -15 -13 -15 -53z"/>
<path d="M2200 585 l0 -75 45 0 c35 0 45 4 45 16 0 12 -7 15 -30 12 l-30 -5 0
64 c0 49 -3 63 -15 63 -12 0 -15 -15 -15 -75z"/>
<path d="M2270 650 c0 -5 11 -10 25 -10 24 0 25 -2 25 -65 0 -49 3 -65 14 -65
11 0 13 14 8 65 -5 65 -5 65 22 65 14 0 26 5 26 10 0 6 -27 10 -60 10 -33 0
-60 -4 -60 -10z"/>
<path d="M2402 592 c-26 -81 -26 -82 -8 -82 8 0 16 11 20 23 7 30 46 29 57 -1
12 -31 43 -30 33 1 -32 102 -42 122 -60 125 -16 2 -24 -9 -42 -66z m57 -9 c1
-7 -6 -13 -14 -13 -15 0 -21 40 -8 54 7 7 21 -18 22 -41z"/>
<path d="M1512 428 c-25 -25 -14 -57 24 -73 43 -18 40 -40 -4 -40 -18 0 -32
-5 -32 -11 0 -15 29 -22 60 -14 19 4 26 13 28 37 3 27 -2 34 -28 48 -35 18
-35 40 0 40 13 0 25 6 28 13 5 16 -60 16 -76 0z"/>
<path d="M1620 365 l0 -75 45 0 c25 0 45 5 45 10 0 6 -13 10 -29 10 -17 0 -31
6 -35 16 -9 23 0 32 29 26 18 -3 25 0 25 12 0 11 -9 16 -29 16 -24 0 -28 3
-24 20 4 15 12 20 31 18 14 -2 27 3 29 10 3 8 -9 12 -41 12 l-46 0 0 -75z"/>
<path d="M1730 365 c0 -60 3 -75 15 -75 10 0 15 10 15 31 0 23 4 30 17 27 9
-2 20 -14 23 -28 3 -14 13 -26 22 -28 13 -2 15 2 11 20 -3 13 -10 28 -15 35
-5 7 -5 14 2 18 17 11 11 54 -9 65 -11 5 -33 10 -50 10 l-31 0 0 -75z m67 44
c16 -16 5 -39 -18 -39 -14 0 -19 7 -19 25 0 26 18 33 37 14z"/>
<path d="M1850 433 c0 -4 10 -37 22 -75 28 -88 48 -91 76 -10 11 31 23 65 27
76 6 14 4 17 -11 14 -14 -2 -23 -20 -35 -63 l-16 -60 -18 63 c-11 37 -23 62
-31 62 -8 0 -14 -3 -14 -7z"/>
<path d="M1990 365 c0 -60 3 -75 15 -75 12 0 15 15 15 75 0 60 -3 75 -15 75
-12 0 -15 -15 -15 -75z"/>
<path d="M2070 420 c-53 -53 2 -157 71 -135 29 9 22 25 -10 25 -34 0 -53 20
-53 57 0 32 29 56 60 48 15 -4 22 -1 22 10 0 23 -65 20 -90 -5z"/>
<path d="M2180 365 l0 -75 50 0 c28 0 50 5 50 10 0 6 -16 10 -35 10 -30 0 -35
3 -35 23 0 20 4 23 30 19 23 -3 30 0 30 12 0 11 -9 16 -30 16 -24 0 -30 4 -30
21 0 18 4 20 30 14 23 -5 30 -3 30 9 0 12 -11 16 -45 16 l-45 0 0 -75z"/>
<path d="M2305 424 c-9 -9 -14 -23 -11 -31 3 -8 6 -16 6 -19 0 -2 14 -10 30
-19 41 -21 40 -48 -2 -43 -36 4 -50 -17 -16 -25 31 -8 72 14 76 41 3 16 -6 27
-33 43 -40 24 -41 45 -1 42 17 -1 26 3 26 13 0 20 -54 18 -75 -2z"/>
</g>
</svg>
