<?xml version="1.0" standalone="no"?>
<!DOCTYPE svg PUBLIC "-//W3C//DTD SVG 20010904//EN"
 "http://www.w3.org/TR/2001/REC-SVG-20010904/DTD/svg10.dtd">
<svg version="1.0" xmlns="http://www.w3.org/2000/svg"
 width="300.000000pt" height="155.000000pt" viewBox="0 0 300.000000 155.000000"
 preserveAspectRatio="xMidYMid meet">
<metadata>
Created by potrace 1.10, written by Peter Selinger 2001-2011
</metadata>
<g transform="translate(0.000000,155.000000) scale(0.100000,-0.100000)"
fill="#000000" stroke="none">
<path d="M728 1131 l-148 -106 40 -3 40 -3 0 -122 0 -123 220 1 220 0 0 122 0
122 42 3 42 3 -57 38 -57 37 0 55 0 55 -45 0 c-38 0 -45 -3 -45 -20 0 -27 -5
-26 -54 15 -24 19 -45 35 -47 34 -2 -1 -70 -49 -151 -108z m197 38 c31 -18 39
-20 65 -9 37 15 50 7 50 -33 0 -20 9 -41 27 -59 21 -22 24 -31 15 -40 -8 -8
-12 -46 -12 -102 0 -97 -10 -130 -31 -109 -10 10 -10 23 0 63 7 28 10 66 7 85
-11 56 -34 65 -171 65 -117 0 -122 -1 -145 -25 l-24 -26 -13 23 c-20 37 -15
54 25 82 20 14 62 44 92 65 30 22 60 40 67 41 6 0 28 -10 48 -21z m89 -185
c10 -27 7 -89 -6 -102 -7 -7 -42 -12 -85 -12 -72 0 -73 0 -73 26 0 24 2 25 47
23 39 -3 48 0 51 14 3 15 -6 17 -63 17 l-66 0 3 -52 3 -53 93 1 c50 0 92 -1
92 -3 0 -2 -7 -15 -16 -28 -16 -24 -21 -25 -117 -25 -133 0 -137 3 -137 122
l0 88 134 0 c113 0 135 -2 140 -16z m-306 -86 c-1 -63 -2 -67 -7 -28 -6 43 -3
100 5 100 2 0 3 -33 2 -72z"/>
<path d="M250 1045 l0 -35 56 0 55 0 -2 -117 -1 -116 38 0 39 0 -4 116 -3 117
58 0 59 0 1 35 1 35 -149 0 -148 0 0 -35z m176 -8 c2 -2 -4 -14 -13 -27 l-16
-23 -19 23 c-14 17 -16 25 -7 31 11 7 47 4 55 -4z"/>
<path d="M1547 930 c1 -83 4 -150 7 -150 4 0 21 0 40 0 l34 0 -1 150 -1 150
-41 0 -40 0 2 -150z"/>
<path d="M1227 987 c-15 -10 -17 -27 -15 -107 l3 -95 123 -3 122 -3 0 26 c0
25 -1 25 -84 25 -92 0 -96 3 -96 65 0 47 19 58 91 53 58 -4 61 -3 75 24 l15
28 -109 0 c-71 0 -114 -4 -125 -13z m39 -162 c7 -18 6 -18 -9 -6 -11 9 -17 27
-16 55 l1 41 8 -35 c4 -19 11 -44 16 -55z"/>
<path d="M1650 971 l-21 -30 58 -3 58 -3 5 -80 5 -80 38 0 37 0 0 97 c0 120
-6 128 -95 128 -59 0 -65 -2 -85 -29z"/>
<path d="M250 543 l0 -153 40 0 40 0 0 121 0 120 48 -3 47 -3 3 -117 3 -118
39 0 39 0 3 118 3 117 45 0 45 0 3 -117 3 -118 39 0 40 0 0 133 c0 91 -4 139
-12 150 -11 15 -39 17 -221 20 l-207 2 0 -152z m68 105 c-3 -14 -24 -38 -32
-38 -12 0 -6 38 7 43 21 9 27 7 25 -5z m182 5 c0 -5 -7 -16 -15 -27 -15 -20
-29 -15 -45 15 -10 17 -7 19 25 19 19 0 35 -3 35 -7z m146 -10 c11 -12 13 -18
5 -21 -13 -4 -41 16 -41 29 0 14 17 10 36 -8z m-359 -150 c-2 -21 -4 -4 -4 37
0 41 2 58 4 38 2 -21 2 -55 0 -75z"/>
<path d="M1080 545 l0 -155 40 0 40 0 0 155 0 155 -40 0 -40 0 0 -155z"/>
<path d="M1420 644 c0 -59 -1 -59 53 -22 19 14 27 28 27 49 0 27 -2 29 -40 29
l-40 0 0 -56z"/>
<path d="M2098 695 c-3 -3 -4 -60 -1 -126 l6 -119 -72 0 -72 0 3 53 3 52 49 5
c36 4 53 11 64 28 l14 22 -95 0 c-115 0 -117 -2 -117 -114 0 -106 1 -107 162
-104 l130 3 0 150 0 150 -34 3 c-19 2 -36 0 -40 -3z m40 -152 l-1 -78 -7 70
c-3 39 -5 73 -3 78 10 19 13 1 11 -70z"/>
<path d="M769 594 c-10 -11 -19 -23 -19 -27 0 -3 44 -8 98 -9 l97 -3 3 -55 3
-55 -71 -2 c-63 -1 -70 1 -70 18 0 16 7 19 56 19 51 0 55 2 52 22 -3 20 -8 21
-82 21 -43 -1 -83 -6 -88 -11 -5 -5 -8 -33 -6 -63 l3 -54 143 -3 142 -3 0 100
c0 67 -4 102 -13 109 -7 6 -61 12 -120 14 -99 3 -110 1 -128 -18z"/>
<path d="M1550 503 l0 -113 43 0 42 0 -4 86 -3 85 58 -3 59 -3 3 -82 3 -83 39
0 40 0 0 99 c0 67 -4 102 -12 109 -7 6 -70 12 -141 14 l-127 3 0 -112z"/>
<path d="M2330 611 l-95 -6 -3 -107 -3 -108 40 0 40 0 3 83 3 82 45 3 c32 2
50 9 62 25 19 23 23 38 11 35 -5 -1 -51 -4 -103 -7z m-46 -63 c-4 -18 -6 -45
-5 -60 1 -16 -3 -28 -9 -28 -5 0 -10 24 -10 54 0 48 5 60 28 65 2 1 0 -14 -4
-31z"/>
<path d="M1185 588 c-16 -23 -15 -23 42 -28 l58 -5 3 -82 3 -83 39 0 40 0 0
91 c0 124 -3 129 -95 129 -65 0 -76 -3 -90 -22z"/>
<path d="M1458 584 l-38 -24 0 -85 0 -85 40 0 40 0 0 110 c0 61 -1 110 -2 109
-2 0 -20 -11 -40 -25z"/>
<path d="M2457 585 l-17 -24 102 -3 103 -3 3 -55 3 -55 -71 -2 c-64 -2 -70 0
-70 17 0 18 7 20 56 20 52 0 55 1 52 23 -3 23 -11 23 -171 17 -4 0 -7 -28 -5
-62 l3 -63 143 -3 142 -3 0 99 c0 63 -4 102 -12 110 -8 8 -51 12 -128 12 -110
-1 -116 -2 -133 -25z"/>
</g>
</svg>
